<svg id="Layer_1" data-name="Layer 1" xmlns="http://www.w3.org/2000/svg" xmlns:xlink="http://www.w3.org/1999/xlink" viewBox="0 0 622.12 134.12"><defs><style>.cls-1{fill:url(#linear-gradient);}.cls-2{fill:#333031;}</style><linearGradient id="linear-gradient" x1="3.57" y1="87.73" x2="616.57" y2="87.73" gradientUnits="userSpaceOnUse"><stop offset="0" stop-color="#f7941d"/><stop offset="1" stop-color="#ec008c"/></linearGradient></defs><path class="cls-1" d="M616.07,109.79l-.13,0A1121,1121,0,0,0,4.21,108.66a.5.5,0,0,1-.62-.34.51.51,0,0,1,.35-.62,1122,1122,0,0,1,612.27,1.11.51.51,0,0,1,.35.62A.51.51,0,0,1,616.07,109.79Z"/><path class="cls-2" d="M247.76,13.11h12.83v1.7H249.65v6.85h9.78v1.7h-9.78v7.21h11.29v1.7H247.76Z"/><path class="cls-2" d="M283,13.11h1.87V32.27h-2L271,16V32.27h-1.89V13.11h2L283,29.34Z"/><path class="cls-2" d="M307.1,14.37A9.43,9.43,0,0,1,312,22.7,9.38,9.38,0,0,1,307.09,31a10.24,10.24,0,0,1-5,1.26H294.4V13.11h7.7A10.09,10.09,0,0,1,307.1,14.37Zm-1,15.16A7.79,7.79,0,0,0,309,26.69a7.66,7.66,0,0,0,1.06-4,7.75,7.75,0,0,0-1.07-4,7.9,7.9,0,0,0-2.89-2.85,8,8,0,0,0-4-1h-5.78V30.57h5.87A7.87,7.87,0,0,0,306.13,29.53Z"/><path class="cls-2" d="M343.85,14.25a10,10,0,0,1,3.63,3.52,9.3,9.3,0,0,1,1.34,4.88,9.4,9.4,0,0,1-1.34,4.9,10.09,10.09,0,0,1-17.32,0,9.4,9.4,0,0,1-1.34-4.9,9.3,9.3,0,0,1,1.34-4.88,10.25,10.25,0,0,1,13.69-3.52Zm-9.06,1.47a8.07,8.07,0,0,0-3,2.9,7.71,7.71,0,0,0-1.09,4,7.84,7.84,0,0,0,1.09,4.05,8.05,8.05,0,0,0,3,2.95,8,8,0,0,0,4.06,1.08,7.81,7.81,0,0,0,4-1.08,8,8,0,0,0,2.95-2.95,7.84,7.84,0,0,0,1.09-4.05,7.71,7.71,0,0,0-1.09-4,8,8,0,0,0-2.95-2.9,7.8,7.8,0,0,0-4-1.07A8,8,0,0,0,334.79,15.72Z"/><path class="cls-2" d="M356.5,13.11h12v1.7H358.39v7.37h9v1.7h-9v8.39H356.5Z"/><path class="cls-2" d="M105.9,43.6c-3.06,7.63-6.44,15.11-10.06,22.48l9.23,27.7H84.63l9-26.71c.22-1.7,1.11-3.26,1.6-4.88.83-2.75,2.12-5.37,2.88-8.14.53-2,1.53-3.74,1.75-5.86.19-1.82,1.21-3.55,1.85-5.33a1.08,1.08,0,0,0,0-.36c.47-2,.93-4,1.4-6L96.23,18.66a1.5,1.5,0,0,0-2.61,0L54,120.75c-.43.87.15,1.59,1.31,1.59h8.74c.46-1.72.92-3.44,1.36-5.16.17-.67.27-1.35.4-2-.6.27-1.21.51-1.79.82-2.32,1.23-4.65,2.46-6.95,3.74-.29.16-.44.58-.65.87l-.85-1v-.24c.37-.71,1.14-.32,1.67-.58.69-.35,1.37-.74,2-1.13,1-.57,2-1.15,3-1.75q2.09-1.26,4.15-2.54c.64-2,.22-4.16,1.39-6,.11-.88.21-1.76.32-2.64a13.61,13.61,0,0,1,1.18-5.51c.07-1.28.13-2.56.19-3.84h.24l0,3.85q-.49,2.75-1,5.51l-.45,2.64c-.25,1.58-.49,3.16-.77,4.73a5.07,5.07,0,0,1-.42,1v1.62c.92-.25,1.91-.54,2.91-.77a9.22,9.22,0,0,1,1.4-.13c.31-1.06.61-2.12.92-3.18l.3-.87c0-.41,0-.82,0-1.22l.3.17-.29-.17.23-1,.46.32-.27.92h0l-.18,1.68c-.17,1-.33,1.94-.5,2.9h2.43c-.31.56-.2,1.5-1.22.72-.16-.12-.58.09-.86.2s-.69.34-1,.51c0,.31,0,.63-.07.94q-1.26,3.33-2.51,6.64h2.8a9.52,9.52,0,0,1,.69-5.21l.46-.12c0,.2,0,.41,0,.61-.14,1.25-.3,2.5-.43,3.75,0,.32,0,.65,0,1h.57a1.38,1.38,0,0,0,1.31-.72l3.91-10.73h32.92l4.21,10.73a1.28,1.28,0,0,0,1.15.72h6.54c-.14-.29-.28-.59-.41-.88s-.33-.79-.49-1.18l-.24-1-.47-.7h0l-1-1.93.07-.13-.07.12-.48-1c-.39-.76-.81-1.52-1.18-2.3q-1.45-3.09-2.85-6.21a6.55,6.55,0,0,1-.28-1.33c-.57-1.44-1.13-2.88-1.69-4.31l.12-.33-.12.33-.21-1L112.09,97c-.49-1-1-2.08-1.46-3.13-.58-1.35-1.17-2.7-1.75-4.06l-.25-.73-1.2-2.6c-.25-.41-.49-.82-.73-1.23s-.31-.63-.47-.94l-.48-1-.23-.72-1-1.89-.71-1,.48.07.5.69c.33.64.65,1.28,1,1.92l.22.25c.15.4.29.8.43,1.21l.54.94.66,1,1.5,3.1c.05.17.1.33.16.5A11.06,11.06,0,0,1,111,93.63c.5,1.11,1,2.23,1.49,3.35a7.31,7.31,0,0,1,.88,1.15c.38.79.66,1.63,1,2.45l.07.23h0l1.65,4.57c.37.74.77,1.47,1.1,2.23,1.09,2.52,2.16,5.06,3.24,7.59l.48,1h0l1,1.92h0c.16.4.33.81.48,1.21l.22.46.49,1.18c.17.4.33.81.5,1.21l.06.18h3l-.21-.39c-.39-.64-.79-1.28-1.19-1.92-.93-1.83-1.88-3.65-2.79-5.49a14.33,14.33,0,0,1-.58-1.71l-.72-1.68.53,0,.6,1.69q1.36,2.88,2.74,5.76c.13.27.31.52.46.78l1.22,1.84.51,1.14h2.22a1.19,1.19,0,0,0-.08-.16l-1.43-2.9-1-1.43-.26-.27-1.23-2.6-.36-.51h0c-.33-.72-.66-1.43-1-2.14l-.54-1.19-.49-1.44-.44-.58c.1,0,.25-.16.27-.14.22.22.42.46.63.7s.15.67.23,1l.54,1.64c.46.61,1.44,1,.88,2h0l.78.4c.32.7.65,1.4,1,2.1l.24.23,1,1.68c.54,1,1.09,2.09,1.64,3.14l.19.4h1.83l-.06-.16c-.08-.17-.16-.34-.25-.5l-.68-1.18-.56-1.43-.51-.89L130,118l.48.67.79,1.59c.15.32.31.64.46,1l.42,1,.09.14h2.47c1,0,1.59-.72,1.16-1.59ZM62.59,117.87l.67-.81.69-.45.17.17c-.2.28-.41.55-.62.83l-.67.26c.27.63.59,1.27-.6,1.7C62.37,118.92,62.48,118.39,62.59,117.87Zm10.77-10.78-.3-.27.44-.32Zm36-21.12.3-.14.5,1.07-.3.14C109.66,86.68,109.5,86.32,109.33,86Zm11.77,25.18c-.39-1-.79-1.91-1.19-2.86A19.83,19.83,0,0,1,117,102l-.64-1-1.29-2.87c-.15-.66-.3-1.32-.46-2l-1-2,0,0,0,0,0,0V94.1c-.14-.24-.29-.48-.44-.72L112.47,92l-.66-1.24c-.11-.22-.21-.44-.31-.66-.16-.41-.31-.82-.47-1.22s-.48-.65-.73-1l-.35-.43.83.42.26.72.66,1,.52,1.17.5,1,.89,1.44,0,.95,0,0,0,0c.9.32,1.41.85.94,1.88a1.12,1.12,0,0,1,.76,1.38l1.82,3.62a.32.32,0,0,1,.08.21q1.54,3.38,3.1,6.75l1.24,3.1Zm1-3.37-.7-1.16.25-.15.72,1.25.16.66Z"/><path class="cls-2" d="M101.07,48.09l.32.12c1.12-2.52,2.25-5.05,3.36-7.57l-.8-2.08-.12.4c-.37,1.19-.79,2.37-1.18,3.56Q101.86,45.31,101.07,48.09Z"/><path class="cls-2" d="M70.67,117.06c.18-.45.33-.92.49-1.38l-.21-.52-2.52.06c-1.74,0-1.87.24-2.31,1.94s-1.09,3.46-1.65,5.18H68.6Z"/><path class="cls-2" d="M187.36,107.83H160.24V44.49a1,1,0,0,0-1.12-.9H146.4a1,1,0,0,0-1.12.9v76.95a1,1,0,0,0,1.12.9h41a1,1,0,0,0,1.12-.9V108.73A1,1,0,0,0,187.36,107.83Z"/><path class="cls-2" d="M250.57,43.59h-51a1,1,0,0,0-1,.9v76.95a1,1,0,0,0,1,.9h2.11a4.3,4.3,0,0,0-.16-.41c-.08-.48-.15-1-.23-1.45l-.06-3.58c.16-.4.32-.8.49-1.2s-.06-1,.67-.47a.21.21,0,0,1,0,.23v1.45c0,1.28.08,2.56.11,3.84l.18,1.44v.15h47.86a1,1,0,0,0,1.13-.9V109.07a1,1,0,0,0-1.13-.9H213.45v-18h30.71a.92.92,0,0,0,1-.9V81.41l-.24-.06c-1.23.15-2.48.22-3.7.48-3.53.74-7.1.44-10.66.44l-.5.09-.67-.27c.39-1,1.25-.36,1.89-.52l1.43.07.95-.07h3.61l1.29-.16,6.35-.47.25.07V77a.92.92,0,0,0-1-.9H213.45V57.88h37.12a1,1,0,0,0,1.13-.9V44.49A1,1,0,0,0,250.57,43.59Zm-14,41.08,1.36-.15h1.54l3.56.24,1.07-.21.09.3-1.21.33c-2,.1-4,.24-6,.26-.36,0-.73-.53-1.1-.81Z"/><path class="cls-2" d="M284.75,117.71c0-2.19.1-4.39,0-6.58-.06-1.75-.31-3.5-.47-5.25a15.48,15.48,0,0,0-.68,2.7c-.13,1.56-.07,3.14-.08,4.72-.08,1.2-.15,2.4-.22,3.6a6.44,6.44,0,0,1,.31,1.26,2.55,2.55,0,0,0,1.14,2.3C284.77,119.55,284.74,118.63,284.75,117.71Z"/><path class="cls-2" d="M304.52,44.27H259.86a1,1,0,0,0-1.13.9v11.7c0,.45.45.78,1.13.78h15v63.79a.92.92,0,0,0,1,.9h1.86c.2-.38.38-.76.54-1.15a6.26,6.26,0,0,0,.1-1.75,5.43,5.43,0,0,1,.23-.88l.62-.26-.61-.22a.3.3,0,0,1,0-.21c0-1-.51-2.05.43-2.9,0-.14,0-.28,0-.41l0-1.49c0-.17,0-.34.05-.51,0-.79,0-1.58,0-2.37l0-1.14c.09-.41.18-.83.28-1.25a.33.33,0,0,0,.17,0l.27-1.21a.33.33,0,0,1,0-.22c0-.8,0-1.6-.05-2.4,0-.16,0-.31.07-.47,0-.64,0-1.28,0-1.92s.11-1.31.17-2l.73.31.11,0,.11,0,0,2.62c-.06.32-.13.64-.2,1l0,.5c.06.79.11,1.58.17,2.38l0,3.36c0,.16,0,.31-.05.47,0,.4,0,.81,0,1.21v2.88l-.22.67c0,.16,0,.31,0,.47.06.58.13,1.16.19,1.73,0,.25,0,.5,0,.74a.21.21,0,0,1,0,.23c0,1.12,0,2.25,0,3.37l-.51.87h2c0-.37,0-.74,0-1.11l-.15-1c0-.08,0-.17,0-.26l.21-1c0-.26,0-.51,0-.76a1.48,1.48,0,0,1,0-.21l.48-1.19c0-1.2,0-2.4,0-3.6s0-2.13,0-3.2c0-.51,0-1-.06-1.53,0-.35-.19-.8,0-1,1.08-1.73.41-3.64.64-5.45,0-.33.12-.66.19-1V100l.34,0,.12,1.11c.22.65.43,1.3.65,1.94l.06.46c0,.64,0,1.28,0,1.93a11,11,0,0,1,.71,2.62c.11,3.44.08,6.88.1,10.33,0,.24,0,.47,0,.71l-.33,2.37c-.06.23-.13.46-.19.68l-.21-.91a1.55,1.55,0,0,1,0-.21,1.86,1.86,0,0,0-.39-.13,1.8,1.8,0,0,0,0,1.49h2.12a6.69,6.69,0,0,0-.61-3.51l0-.73A7.58,7.58,0,0,1,286,117a1.71,1.71,0,0,1,.3-.54c.12.15.34.29.34.44.11,1.82.8,3.57.86,5.4h1a.92.92,0,0,0,1-.9V57.65h15c.67,0,1.12-.33,1.12-.78V45.17A1,1,0,0,0,304.52,44.27ZM279.79,91.72V90.1h.46L280,91.71c0,.36.08.72.11,1.08l-.36,0Zm.15,1.44c.1.52.21,1,.3,1.55a1.1,1.1,0,0,1-.05.35h-.39a1.08,1.08,0,0,1,0-.35C279.81,94.19,279.88,93.68,279.94,93.16Zm.06,6.26-.18-.51.5-.08.38-.35c.08.29.16.58.25.87Z"/><path class="cls-2" d="M282.87,120l0,.73c0,.16,0,.31,0,.47v1.13h.51a.76.76,0,0,1,0-.15A12,12,0,0,0,282.87,120Z"/><path class="cls-2" d="M365.44,105.62l.45.25-.45-.25Z"/><path class="cls-2" d="M360,122.34h3.31c0-.76,0-1.52-.05-2.27,0-.12-.28-.25-.45-.32-1.31-.5-2.63-1-3.94-1.49v3.18A1,1,0,0,0,360,122.34Z"/><path class="cls-2" d="M366.91,120.87a2.05,2.05,0,0,0-.5,0c.07.17.13.33.19.5s-.16.23-.25.34,0,.43,0,.65h4.25l-.14-.15C369.28,121.75,368.1,121.3,366.91,120.87Z"/><path class="cls-2" d="M372.83,43.59H360a1,1,0,0,0-1.13.9V75.2H329.41V44.49a1,1,0,0,0-1.13-.9H315.57a1,1,0,0,0-1.13.9v76.95a1,1,0,0,0,1.13.9h4.77l0-.87a6.37,6.37,0,0,1-.77-3.68c0-2.47.41-5-.58-7.36q.06-3.84.13-7.68V102l.47,0c0,.31,0,.63,0,.94.05,1.13.09,2.26.14,3.39,0,.55,0,1.1,0,1.65l-.09,2.18c1.2,2.06.58,4.32.75,6.5.11,1.44.37,2.87.57,4.3a2.09,2.09,0,0,0-.08.23c.07.33.15.67.22,1,0,0,0,.08,0,.12h7.3a1,1,0,0,0,1.13-.9V89.49h29.47v27.34a1.37,1.37,0,0,1,.6.29,11.47,11.47,0,0,0,3.3,1.21,26.57,26.57,0,0,1-.4-3.18c0-1.65.16-3.31.19-5s0-3.17,0-4.76c.06-.65.11-1.31.17-2,.17-.47-.69-1,.1-1.44-.09-.3-.17-.59-.25-.88l.12-1.76c0-.8.05-1.61.08-2.41h0l0-1.45h0c0-.55,0-1.11,0-1.67s0-1.28.05-1.93l.35-.22c0,.72,0,1.44,0,2.16l.09,1.44-.05.23.06,1-.1.48h0c0,1.76.06,3.52.08,5.28.07.92.2,1.85.2,2.77,0,1.92-.05,3.83-.06,5.74,0,1,0,2.09.05,3.13,0,.62,0,1.24,0,1.86,0,1,0,2,0,3l1.67.28.06-2.41v-1.23h0q0-3.47,0-7l0-1.92,0-1-.08-.5.27-4.3h0c0-.4.07-.81.11-1.21s-.17-.93-.26-1.39l.39.2-.39-.2c0-.39.06-.79.08-1.19h.31v1.38l-.09,1.2c0,.4,0,.8,0,1.2a2.28,2.28,0,0,1,.28.73c0,1.44,0,2.88,0,4.32l-.22.71v1.92c.08,1.55.18,3.1.21,4.66a19.94,19.94,0,0,1-.17,2.31h0l.12,1.44c0,.87.08,1.75.11,2.62l3.61,1.22v-5.39c0-.82,0-1.63,0-2.45,0-.12.14-.24.22-.37.14.09.4.16.42.28a17,17,0,0,1,.28,2.23c0,1.82,0,3.64,0,5.45a6.55,6.55,0,0,0,.44,1.5l.27.17-.09.17h0l.09-.17a1,1,0,0,0,.1.17h1.52a1,1,0,0,0,1-.9V44.49A1,1,0,0,0,372.83,43.59ZM320,74.38c-.06.15-.21.25-.32.38l-.19-.31.38-.4C319.87,74.17,320,74.31,320,74.38Zm.12,4.09-.46-.23.24-.56C319.93,77.94,320,78.2,320.07,78.47Zm-.48-5.55a2.67,2.67,0,0,1,.2.49s-.16.12-.24.18l-.31-.47Zm-.72,26.44c.1-.39.19-.79.29-1.18l-.52-.45-.15-1.23c0-.72,0-1.44,0-2.16s0-1.44,0-2.16,0-1.28,0-1.92c0-.88-.05-1.77-.07-2.65,0-.56,0-1.12,0-1.67.23-.5.47-1,.7-1.49,0-.5.07-1,.1-1.51h.39v1.82L318.83,86l.08,0c0,.4,0,.81,0,1.21l0,.47,0,2.15c0,.57,0,1.13,0,1.7a.31.31,0,0,1-.07.21,2.33,2.33,0,0,1,.05.28c0,.79,0,1.59,0,2.39s.45,1.51-.23,2.17c.31.56.63,1.11.95,1.67a11.11,11.11,0,0,1,0,1.15,2.77,2.77,0,0,1-.28.7Zm.69,2.67-.47,0c0-.23,0-.45,0-.68a5.93,5.93,0,0,1,0-.73.66.66,0,0,1,.37,0,2.72,2.72,0,0,1,.23.77A2.79,2.79,0,0,1,319.56,102Zm.81-17.47-.08-1.22c-.05-.25-.1-.49-.16-.74h0c-.17-.81-.33-1.63-.5-2.44l.22-.66.43,0c-.07.21-.15.42-.22.62.09.81.17,1.62.26,2.42l.28.45.19,1.73-.42.29Zm.49,4.74-.3.55-.16-.61Zm-.3,1.14.24.07c0,.27,0,.53,0,.8h-.27Zm.25,2.63.22,0,.21,1.45-.35,0C320.86,94.05,320.84,93.56,320.81,93.07ZM321,95.8l.43-.35c0,.27-.07.54-.11.82C321.18,96.11,321.07,96,321,95.8Zm.22,2.1v0l-.12-.85a.83.83,0,0,0,.22-.08l-.1.93v0l.32,1.49-.32,0V97.9Zm.13,2.32s.14-.1.22-.15c.07.12.2.23.2.36s-.12.22-.3.52A5.18,5.18,0,0,1,321.31,100.22Zm.25,1.47.27,0,.16,1.8c0,.56,0,1.12,0,1.68l-.24.72c-.06-.73-.13-1.45-.2-2.18Zm.19,4.37.29.51-.09,1-.35,0Zm0,2.88,0-.7.49.91Zm.52,3.78c0-.44-.05-.89-.07-1.33l.24,0c0,.44.11.89.16,1.33Zm40.91-21-.35.22c0-.47,0-1,0-1.42,0-.63,0-1.25,0-1.87l.45,0,0,1.87C363.28,90.9,363.24,91.3,363.21,91.71Zm2.5,1.92v.93c0,.44,0,.88,0,1.32l-.4-.31h0c.07-.59.13-1.17.2-1.76l.25-.18-.25.18c-.07-.44-.14-.88-.2-1.32l.45,0Z"/><path class="cls-2" d="M366,122.34v-.65a1.75,1.75,0,0,0-1.08-1.6c-.43-.18-.94-.27-.91.56,0,.56,0,1.13,0,1.69Z"/><path class="cls-2" d="M438,114h-1.39c-1.58,0-3.17.11-4.74,0a10.15,10.15,0,0,1-3.06-1c.87-.4,1.69-.74,2.5.07a1.06,1.06,0,0,0,.73.22c.83,0,1.65-.13,2.48-.2l1.56,0H439l1.57,0,3.3-.32v-3.68a1,1,0,0,0-1.12-.9h-34l0,.13-.34,0v-.11h-2.72v-18h1.72c-.08-1.39-.15-2.79-.22-4.18,0-.74-.08-1.48-.11-2.22,0-2.22-.05-4.44-.05-6.65a5.13,5.13,0,0,1,.15-1h-1.49V57.88h37.13a1,1,0,0,0,1.12-.9V44.49a1,1,0,0,0-1.12-.9h-51a1,1,0,0,0-1,.9v76.95a1,1,0,0,0,1,.9h6.3c0-.17,0-.34,0-.51,0-3.73,0-7.46.07-11.19a2.69,2.69,0,0,1,.18-.73c.14.22.39.44.4.67.06,1.17.05,2.35.09,3.52a12.38,12.38,0,0,0,.2,1.36c0,.49,0,1,0,1.48v5.4h.32c0-.31,0-.63,0-.94s0-.39.6-.18c.07.37.15.75.22,1.12h42.6a1,1,0,0,0,1.12-.9v-8.09a7.76,7.76,0,0,0-2.68.54C440.29,114.26,439.1,114,438,114ZM395.21,80.44l.23-.06,0,.81h-.27Zm.1,1.69c0-.08.15-.21.28-.38.15.18.32.31.3.41s-.19.2-.3.3C395.49,82.35,395.33,82.26,395.31,82.13ZM396,97.24v-1l-.21-1.66,0-1-.09-.95V92.4l.09-2.39c0-.64,0-1.27,0-1.9.06-.84.13-1.67.19-2.51l-.21-.37.08-1.41,0,0,0,0,0-.75.32.13-.29.62v.09l.42.93h-.1l0,.71c.08.58.17,1.15.25,1.72l-.31.93h0l0,1.67c0,.73,0,1.45,0,2.18l.05,1,0,.71,0,1c.09.48.19,1,.28,1.45l-.07.47,0,.72.21.07,0,.64,0,1.69h0a4.71,4.71,0,0,1,.24,1,1.86,1.86,0,0,1-.25.66,2.32,2.32,0,0,1-.36-.62,3.33,3.33,0,0,1,0-.83c0-.71-.11-1.42-.16-2.13Zm.21,9.1.27-1.91c-.08-.85-.16-1.7-.22-2.55,0-.06.18-.21.25-.19s.35.16.35.24c-.06.83-.15,1.66-.24,2.49,0,.64,0,1.28,0,1.92.08.13.22.27.22.4,0,.44-.06.88-.09,1.33a3.45,3.45,0,0,1-.56-.59c-.05-.1.21-.33.21-.5A2.2,2.2,0,0,0,396.2,106.34Zm.18,7.09c.1-.58.14-.82.17-1.05a1.66,1.66,0,0,1,.24.48C396.81,112.94,396.67,113.05,396.38,113.43Zm.17-1.68-.19-.38c0-.39.07-.78.1-1.17C397.32,110.67,396.59,111.23,396.55,111.75Zm-.06-2.07c-.08-.15-.27-.34-.23-.45s.28-.31.43-.46l.3.54Zm12.12.51c-.16-.24-.33-.4-.35-.56s.25-.21.38-.31a1.48,1.48,0,0,1,.23.45C408.89,109.87,408.74,110,408.61,110.19Z"/><path class="cls-2" d="M437.38,89.27V77a.92.92,0,0,0-1-.9H409.52c0,.47.06.93.08,1.4.09,1.6.15,3.2.22,4.8,0,.42,0,.83,0,1.25,0,.78,0,1.57,0,2.36l-.15,1.46c0,.8,0,1.61,0,2.42,0,.12,0,.25,0,.38h26.71A.92.92,0,0,0,437.38,89.27Z"/><path class="cls-2" d="M408.77,76.33a1.77,1.77,0,0,1,0-.23h-1.14c0,1.36,0,2.71.05,4.08,0,.64,0,1.28.05,1.93l.15,1.75c-.05,1.35-.17,2.71-.12,4.06a21.71,21.71,0,0,0,.31,2.25h.78C408.85,85.55,408.8,80.94,408.77,76.33Z"/><path class="cls-2" d="M471.21,43.59H458.5a1,1,0,0,0-1.13.9v76.95a1,1,0,0,0,1.13.9h2.35c0-.24,0-.47,0-.71,0-1,0-2,0-3,0-.71-.07-1.42-.07-2.12,0-2.12,0-4.23,0-6.35a2.44,2.44,0,0,1,.2-.67c0-.41,0-.81,0-1.21l.07,0-.06,0v-7.19l0-1.68h0l-.1-.71-.05-.63.34.35c0,.33.11.66.16,1l0,1.68c0,.48,0,1,0,1.44l.09,0c0,.72,0,1.44-.05,2.16h0c0,1.13,0,2.26,0,3.38.12.16.24.31.34.47l-.3,1,.21,4.51c0,.6,0,1.21,0,1.82,0,1.63.05,3.27,0,4.91,0,.55-.06,1.1-.12,1.64h1.06a7,7,0,0,0-.46-1.61c-.41-1-.12-2.21-.1-3.34,0-1.94.07-3.88.1-5.82,0-.67,0-1.34,0-2a10.09,10.09,0,0,0-.17-1.08c0-2,0-4,0-6a19.71,19.71,0,0,0,.22-2.29c0-1.86-.07-3.72-.19-5.57s-.45-3.57-.49-5.36c-.05-2.15.12-4.31.2-6.47l.12-.89a6.38,6.38,0,0,1,.33.82,4.38,4.38,0,0,1,0,.81,17.28,17.28,0,0,1,.12,1.89,39.79,39.79,0,0,0,.57,9,32,32,0,0,1,.07,5.37c0,6.81,0,13.61,0,20.42a9.84,9.84,0,0,0,.34,2.13h3.5v-.89l-.05,0c-.07-.74-.13-1.47-.19-2.21,0-1.75,0-3.5,0-5.24a4,4,0,0,1,.22-1c-.07-.22-.15-.44-.22-.66.05-.66.1-1.32.14-2l.11-.23h0v-1.15h.42v1.38h0c0,1,0,1.92,0,2.87,0,2.64,0,5.27,0,7.91,0,0,0,.08,0,.11l-.36,1h4.38a1,1,0,0,0,1.12-.9V44.49A1,1,0,0,0,471.21,43.59ZM460.6,93.83l.24.59-.27.06Zm.28,3.62-.4-.46H461Z"/><path class="cls-2" d="M518.94,63.4h0Z"/><path class="cls-2" d="M519.26,64.59l0,0,0,0Z"/><path class="cls-2" d="M526.81,79.78l.1-.07-.1.07Z"/><path class="cls-2" d="M519.05,63.35s0,0,0,0S519,63.36,519.05,63.35Z"/><path class="cls-2" d="M519.74,64.71a.3.3,0,0,0,0-.13h0A.5.5,0,0,1,519.74,64.71Z"/><polygon class="cls-2" points="511.82 39.84 511.81 39.84 511.81 39.84 511.82 39.84"/><path class="cls-2" d="M512.18,40.16l0,.08Z"/><path class="cls-2" d="M562.21,120.75,522.63,18.66a1.5,1.5,0,0,0-2.61,0l-6.23,16.08c.38,1.15.79,2.3,1.15,3.47.9,2.9,1.76,5.81,2.65,8.71.82,2.71,1.7,5.4,2.48,8.12.73,2.53,1.37,5.08,2,7.62.25,1,.49,2.07.74,3.11l.72,3.14c0,.16,0,.32,0,.48h0c.43,1.48.85,3,1.27,4.44a.43.43,0,0,1,0,0l.33,1.06.06.16,1.26,3.4.42,1.21,0,.26h0l4.6,13.8H511l8.51-25.16h0c-.1-.31-.18-.61-.26-.91,0-.14,0-.28,0-.42l.11,0-.1,0-.44-1c0-.47,0-1,0-1.43h0l-.71-.49c0-.25,0-.5,0-.75l.22-.2a.15.15,0,0,1,.07-.05h0l.66-.48a1.22,1.22,0,0,1,.06.27,1.22,1.22,0,0,0-.06-.27l0,0-.5-.47-.92,0c.07-.16.15-.31.22-.47h0c-.15-.24-.3-.48-.46-.72h0l-.48-2.39c-.08-.08-.16-.17-.25-.25.08-.23.15-.45.22-.68l-.45-.06c0-.15,0-.31,0-.46s-.19-.45-.29-.67c-.14-.57-.28-1.14-.41-1.71-.08-.18-.15-.37-.22-.55l-.06-1.63c-.09-.24-.17-.48-.25-.72l-.69-2.4c-.23-.65-.45-1.3-.67-2l-.27-.67c0-.23,0-.46,0-.69a.19.19,0,0,1,0-.07s0,0,0,0a.05.05,0,0,0,0,0c-.14-.4-.27-.78-.4-1.18-.35-1-.69-1.9-1-2.84-.08-.32-.15-.65-.23-1h0l-.26-.86h0l-31.14,80.29c-.43.87.15,1.59,1.31,1.59h17.83a1.38,1.38,0,0,0,1.31-.72l3.91-10.73h32.92l4.2,10.73a1.31,1.31,0,0,0,1.16.72h5.06a6.37,6.37,0,0,0-.24-.7c-.52-1.21-1.22-2.34-1.68-3.57-.4-1.08-1.36-1.95-1.1-3.34.09-.49-.67-1.13-1-1.72a4.46,4.46,0,0,1-.27-.67c-.72-2.08-1.45-4.16-2.17-6.25a1.78,1.78,0,0,1,0-.47c-.61-1.6-1.24-3.2-1.86-4.8h0c-.17-.48-.33-1-.49-1.44l-.48-1.92L536.36,90c-.09-.47-.19-1-.28-1.42s-.33-1-.49-1.45l-.23-.48c-.33-1-.67-1.91-1-2.87h0l-1.17-4.08-.72-1.2-.22-.75.18-.22-.18.22-.5-.93c0-.67-.89-1.13-.48-1.92-.14-.39-.29-.79-.44-1.19-.18-.78-.37-1.56-.55-2.34l.47-.11c.16.82.33,1.63.5,2.45l.28.93.48,1.68.42,1.21.32.46.91,1.46c.4,1.26.81,2.51,1.2,3.78,0,.14-.11.34-.17.52h0c1,.43.68,1.41.92,2.17l.23.24.48,2.16.49,1.44c.24.67.48,1.35.71,2l1.25,3.66c.15.42.29.85.43,1.27h0c.23.8.45,1.61.68,2.41h0l.24,1.2h0c.22.6.45,1.19.68,1.79l1.29,3.49,2.39,6.72c.22.15.62.3.62.45,0,1,.75,1.67.91,2.67.24,1.47,1.39,2.77,2,4.21a16.18,16.18,0,0,1,.82,2.67h1.53c-.68-1.79-1.36-3.56-2-5.37-.51-1.5-.82-3.07-1.33-4.57-.72-2.12-1.54-4.21-2.32-6.32a15.9,15.9,0,0,1-1.78-5.26,2.52,2.52,0,0,0-.35-.72h0l-1.5-5.26-.72-1.43-.64-2-.28-.69h0l-.2-.72-.18-.85.32-.06.05.89.45.74.22.47.48,1.69.78,1.65c.64,1.85,1.27,3.69,1.91,5.53h0c.62,1.85,1.23,3.69,1.85,5.53.41.84.9,1.66,1.23,2.53a41.43,41.43,0,0,1,2,5.94c.59,2.9,2.06,5.48,3,8.25h9.71C562.07,122.34,562.65,121.62,562.21,120.75Zm-72-5.38c-.16,0-.44.07-.5,0a.76.76,0,0,1-.06-.56c.11-.43.28-.84.42-1.25l.91-.45.06.43-.28.25C490.69,114.37,491.11,115.11,490.17,115.37Zm48.54-26.9-.34-1,.27-.11.41.95Zm13.23,28.85h-.29c-.08-.38-.15-.76-.23-1.14l-.69-1.94c-.1-.23-.19-.47-.29-.71l.53,0c-.06,0-.07-.07,0-.13.33.91.67,1.81,1,2.72Z"/><path class="cls-2" d="M519.09,63.2a.37.37,0,0,1,0,.11A.37.37,0,0,0,519.09,63.2Z"/><path class="cls-2" d="M512.26,40.48l0,.18Z"/><path class="cls-2" d="M512.06,40l0,0Z"/><path class="cls-2" d="M516.66,54l-.5-.1h0Z"/><path class="cls-2" d="M519.74,64.8Z"/><path class="cls-2" d="M64.24,123.62c.06-.4.13-.8.2-1.2l0-.08h-.39c-.12.42-.23.83-.34,1.25Z"/><path class="cls-2" d="M542.61,100.1h0Z"/><path class="cls-2" d="M107.51,35.87c.08-.91,0-1.82,0-2.74-.39,0,.14-1.15-.69-.51,0,1.08-.13,2.15-.14,3.23a3.77,3.77,0,0,0,.22,1C107.13,36.51,107.48,36.2,107.51,35.87Z"/><path class="cls-2" d="M534.52,83.78l-.16,0h0Z"/><path class="cls-2" d="M511.5,39.85l.15,0h.16l.27-.71h-.92l.23.74h0Z"/><path class="cls-2" d="M539.2,96.74l-.44.72c.15-.24.3-.48.44-.72Z"/><path class="cls-2" d="M409.27,73.93l.46,0c0-.49,0-1,0-1.45h-.41Z"/><path class="cls-2" d="M460.68,127.68h-.44a5.85,5.85,0,0,1,0,.59c-.12.81.32,1.37.51.92A3.57,3.57,0,0,0,460.68,127.68Z"/><path class="cls-2" d="M463.57,127.76h-.43l0,1.69h.46Z"/><path class="cls-2" d="M396.27,99.85l.34-.23h0Z"/><path class="cls-2" d="M511.8,39.84h-.15l-.15,0-.1,0,.18.59.23-.62Z"/><path class="cls-2" d="M512.09,40a.83.83,0,0,1,.09.16Z"/><path class="cls-2" d="M512.21,40.24c0,.08,0,.16,0,.24C512.24,40.4,512.23,40.32,512.21,40.24Z"/><path class="cls-2" d="M511.82,39.84a.46.46,0,0,1,.24.12A.46.46,0,0,0,511.82,39.84Z"/><path class="cls-2" d="M279.74,127l0,1.18h.43c0-.39.05-.78.07-1.17Z"/><path class="cls-2" d="M200.29,126.24l.5.29.62-1.26-.31-.24Z"/><path class="cls-2" d="M461.06,108.23l.35-.2h0Z"/><path class="cls-2" d="M365.71,115.48h0l-.37,0Z"/><path class="cls-2" d="M539.73,100.82l.39-.47h0l-.4.46Z"/><path class="cls-2" d="M539.88,99.15l-.64.23.64-.23Z"/><path class="cls-2" d="M461.46,104.65l-.46-.21.46.21Z"/><path class="cls-2" d="M363.07,97h0Z"/><path class="cls-2" d="M362.77,95.53Z"/><path class="cls-2" d="M110.18,37.76l-.45-.24h0v1.64c0,.47.07.94.1,1.4l.31,0V39.39c0-.55,0-1.09.05-1.64h0Z"/><path class="cls-2" d="M396.08,88.11h0Z"/><path class="cls-2" d="M204.1,125.47l-.57.65h0l.4.71a1.69,1.69,0,0,0,.23-.54A5.66,5.66,0,0,0,204.1,125.47Z"/><path class="cls-2" d="M120.89,116.16l-.19.38c.06-.12.12-.25.19-.37Z"/><path class="cls-2" d="M129.36,127.87c.2.34.41.67.61,1,.09-.09.27-.23.25-.28-.14-.33-.32-.63-.48-1Z"/><path class="cls-2" d="M109.75,30.84c.21.33.41.66.61,1,.09-.1.27-.24.25-.29-.14-.32-.31-.63-.48-.94Z"/><path class="cls-2" d="M94.5,72.6c.2.34.41.67.61,1,.09-.09.27-.23.25-.28-.14-.33-.32-.63-.48-.95Z"/><path class="cls-2" d="M466.73,122.64c0-.1.07-.2.1-.3h-.1Z"/><path class="cls-2" d="M409.35,94.75c.11-.36.19-.72.28-1.08l-.43-.11-.28,1.13A2.91,2.91,0,0,0,409.35,94.75Z"/><path class="cls-2" d="M62.48,126.46H62c0,.32.05.64.07,1l.45.23C62.49,127.26,62.49,126.86,62.48,126.46Z"/><path class="cls-2" d="M121.85,118.09l-.26.51h0c.08-.17.17-.34.26-.5h0Z"/><path class="cls-2" d="M131.2,125.79c.21.38.42.77.64,1.15l.25-.15-.66-1.25Z"/><path class="cls-2" d="M467.17,110.43l-.42-.23h0l.42.23Z"/><path class="cls-2" d="M520.45,80.14l-.22-.79h-.43c0,.32,0,.65-.07,1l.09,1.89h.4l.09-.94-.12-.74Z"/><path class="cls-2" d="M517.6,61h0l-.24.19h0Z"/><path class="cls-2" d="M518.81,64.76l.41-.15-.41.15v.1h0Z"/><path class="cls-2" d="M127.85,123.86l-.27.28c0,.12,0,.24,0,.36l.71.08Z"/><path class="cls-2" d="M507.54,20.89l-.68-1.08c0,.29-.05.57-.07.86C507.29,19.89,507.21,21.09,507.54,20.89Z"/><path class="cls-2" d="M506.76,26c-.07-.34-.13-.67-.2-1l-.58.48c0,.16,0,.32.08.49Z"/><path class="cls-2" d="M512.65,29.4a.68.68,0,0,1,0-.2c-.48.17.19-1.38-.76-.51l.53,1.19c.17.23.33.46.5.68,0-.3,0-.61,0-.9C512.84,29.56,512.72,29.48,512.65,29.4Z"/><path class="cls-2" d="M72.94,108.68l.13.07h0Z"/><path class="cls-2" d="M521.46,71.78c.09-.3.18-.6.26-.91h-.56l-.48.69,0,.23.42,0h0Z"/><path class="cls-2" d="M365.26,95.57l.44-1-.44,1Z"/><path class="cls-2" d="M276.49,126.16l.24.9.37-.9.33-.47-.49-.46Z"/><path class="cls-2" d="M407.7,92.92l.17-.94-.45.24Z"/><path class="cls-2" d="M517.82,61.94h0Z"/><path class="cls-2" d="M523.56,69.39h0l-.1.35h0C523.49,69.63,523.53,69.51,523.56,69.39Z"/><path class="cls-2" d="M67.24,126.11c.05.14.2.24.31.35l.34-.36c-.17-.13-.29-.28-.39-.27S67.21,126.05,67.24,126.11Z"/><path class="cls-2" d="M519.54,67.23h0l-.16,0Z"/><path class="cls-2" d="M461.35,126.44a2,2,0,0,0,.32,0c.09-.29.15-.59.22-.89l-.28-.06Z"/><path class="cls-2" d="M365.44,105.62h0c.1-.39.21-.78.31-1.17C365.65,104.84,365.54,105.23,365.44,105.62Z"/><path class="cls-2" d="M398.3,126c0,.34,0,.68,0,1l.47-.09c-.09-.32-.19-.64-.28-1A.26.26,0,0,0,398.3,126Z"/><path class="cls-2" d="M510.92,32.17c0,.34,0,.68,0,1l.47-.09c-.09-.32-.19-.64-.28-1A.26.26,0,0,0,510.92,32.17Z"/><path class="cls-2" d="M520.73,70.79l-.46,0,.41.78.48-.69Z"/><path class="cls-2" d="M509.84,27.12l-.33.81-.2.93c-.13.62-.27,1.25-.4,1.87h0l.49-.14.18-1.71.36-.86C509.91,27.72,509.87,27.42,509.84,27.12Z"/><path class="cls-2" d="M125.05,114.47h0a.11.11,0,0,1,.07-.08h0A.1.1,0,0,0,125.05,114.47Z"/><path class="cls-2" d="M363.5,125.29l.45,1c0-.56,0-1.12,0-1.67-.15.15-.29.31-.44.47A1.79,1.79,0,0,1,363.5,125.29Z"/><path class="cls-2" d="M526.81,79.78h0l-.53.4-.06.25.51.47c0-.31.09-.62.14-.93l-.06-.18Z"/><path class="cls-2" d="M539.47,90.75Z"/><path class="cls-2" d="M366.55,130.29l.24.07.27-1-.35.22C366.65,129.82,366.6,130.05,366.55,130.29Z"/><path class="cls-2" d="M280.07,128.16h-.3c0,.29,0,.58.05.86l.24,0,.15-.9h-.14Z"/><path class="cls-2" d="M104.68,30.56l-.57.42.64.24C104.73,31,104.71,30.78,104.68,30.56Z"/><path class="cls-2" d="M320.32,82.58l-.19,0h0Z"/><path class="cls-2" d="M371.11,122.34h-.5c.1.12.21.23.32.35h0A3.78,3.78,0,0,0,371.11,122.34Z"/><path class="cls-2" d="M507.78,30.37h-.46l.08.47c0,.32-.06.64-.1,1l0,1.42a.2.2,0,0,1,.1.19v1.07h.33c0-.36.07-.71.1-1.06,0-.78,0-1.57,0-2.35Z"/><path class="cls-2" d="M114.42,100.81l-.15.42.15-.42Z"/><path class="cls-2" d="M512.12,39l.26-.65s0,0,0,0q-.2-.57-.36-1.14c-.07-.31-.14-.62-.2-.92-.71.39-.22.79,0,1.18Z"/><path class="cls-2" d="M512.07,41.06c-.07.09-.15.17-.23.26h0l.23-.25.25-.24,0-.17c0,.06,0,.12,0,.17Z"/><path class="cls-2" d="M523.13,72.55l.69.44c.07.17.14.33.22.49l0,0c-.07-.23-.15-.46-.22-.69s-.13-.64-.19-1l-.5.29Z"/><path class="cls-2" d="M522.14,66.25l-.22,0c0,.14,0,.29,0,.44l.42.57C522.29,66.94,522.21,66.6,522.14,66.25Z"/><path class="cls-2" d="M521.48,65.3a.28.28,0,0,1,.22,0H522l-.1-.3Z"/><path class="cls-2" d="M521.32,63.33l-.06.18-.34,1c.14.13.33,0,.56-.25l.2.16-.21-.65c0,.11,0,.22,0,.33l0-.34Z"/><path class="cls-2" d="M511.67,32.51h0a3.53,3.53,0,0,0-.06.42c0,.35.08.62.5.69a1.26,1.26,0,0,0,.28,0l.19-.07.37-.13c0-.13,0-.26,0-.39l-.09,0a.48.48,0,0,1-.35-.19.56.56,0,0,1,0-.4l.09-.28.08-.29-.29-.85h-.07l-.42-.93-.13,0c-.05.25-.1.49-.16.74s0,.46,0,.68h0v.7l-.18,0-.34-.42-.42.17c-.16-.32-.31-.64-.46-1l-.18-.4-.55.42-.68-.21L509.3,32c.08.31.17.62.25.93H510l.43.07.56,0,.67-.48Z"/><path class="cls-2" d="M520.23,66.56l-.24.69,0,.13.25-.12h0l.06-.41Z"/><path class="cls-2" d="M519.9,66.48h0l.16-.25-.17.24Z"/><polygon class="cls-2" points="519.91 66.48 519.9 66.48 519.9 66.48 519.91 66.48"/><path class="cls-2" d="M520.73,65.54h-.16l-.17.5Z"/><path class="cls-2" d="M519.32,64.59h0Z"/><polygon class="cls-2" points="525.29 81.12 525.29 81.12 525.29 81.12 525.29 81.12"/><path class="cls-2" d="M519.08,63.31l0,0Z"/><path class="cls-2" d="M518.38,63.37l-.08.06c.11-.13.39,0,.58,0A2.2,2.2,0,0,0,518.38,63.37Z"/><path class="cls-2" d="M519.1,63.16s0,0,0,0S519.1,63.17,519.1,63.16Z"/><path class="cls-2" d="M519,63.38l-.06,0Z"/><path class="cls-2" d="M521.69,68.18v0h0l.51-.25c-.17-.11-.35-.21-.53-.31Z"/></svg>